<svg xmlns="http://www.w3.org/2000/svg" width="1200" height="630" viewBox="0 0 1200 630" role="img" aria-labelledby="title desc">
  <title id="title">Mild Takes</title>
  <desc id="desc">A colorful preview card for the Mild Takes daily crowd game.</desc>
  <rect width="1200" height="630" fill="#f5f7f4"/>
  <path d="M0 430c130-70 253-98 369-84 174 21 255 130 427 120 128-7 233-78 404-68v232H0Z" fill="#dbefe9"/>
  <path d="M0 0h1200v114H0Z" fill="#1f2524"/>
  <g transform="translate(86 64)">
    <rect x="0" y="0" width="108" height="108" rx="22" fill="#f2bf43" stroke="#1f2524" stroke-width="8"/>
    <path d="M30 72V32h14l10 23 10-23h14v40H66V52L58 72h-8l-8-20v20Zm60 0V44H78V32h38v12h-12v28Z" fill="#1f2524"/>
  </g>
  <text x="86" y="250" fill="#1f2524" font-family="Inter, Arial, sans-serif" font-size="90" font-weight="900" letter-spacing="0">Mild Takes</text>
  <text x="90" y="322" fill="#485451" font-family="Inter, Arial, sans-serif" font-size="35" font-weight="800" letter-spacing="0">Sort five tiny controversies. Compare with the crowd.</text>
  <g transform="translate(762 162)">
    <g transform="rotate(-7 130 56)">
      <rect x="0" y="0" width="280" height="96" rx="18" fill="#ffffff" stroke="#1f2524" stroke-width="6"/>
      <circle cx="48" cy="48" r="25" fill="#4e76c9" stroke="#1f2524" stroke-width="5"/>
      <text x="42" y="58" fill="#ffffff" font-family="Inter, Arial, sans-serif" font-size="28" font-weight="900">1</text>
      <text x="88" y="42" fill="#1f2524" font-family="Inter, Arial, sans-serif" font-size="24" font-weight="900">Fresh sheets</text>
      <text x="88" y="70" fill="#68726f" font-family="Inter, Arial, sans-serif" font-size="18" font-weight="700">Life-restoring</text>
    </g>
    <g transform="translate(18 118) rotate(3 130 56)">
      <rect x="0" y="0" width="280" height="96" rx="18" fill="#ffffff" stroke="#1f2524" stroke-width="6"/>
      <circle cx="48" cy="48" r="25" fill="#ec6a58" stroke="#1f2524" stroke-width="5"/>
      <text x="39" y="58" fill="#ffffff" font-family="Inter, Arial, sans-serif" font-size="28" font-weight="900">2</text>
      <text x="88" y="42" fill="#1f2524" font-family="Inter, Arial, sans-serif" font-size="24" font-weight="900">Seen 2h ago</text>
      <text x="88" y="70" fill="#68726f" font-family="Inter, Arial, sans-serif" font-size="18" font-weight="700">Panic weather</text>
    </g>
    <g transform="translate(-10 236) rotate(-2 130 56)">
      <rect x="0" y="0" width="280" height="96" rx="18" fill="#ffffff" stroke="#1f2524" stroke-width="6"/>
      <circle cx="48" cy="48" r="25" fill="#127d78" stroke="#1f2524" stroke-width="5"/>
      <text x="39" y="58" fill="#ffffff" font-family="Inter, Arial, sans-serif" font-size="28" font-weight="900">3</text>
      <text x="88" y="42" fill="#1f2524" font-family="Inter, Arial, sans-serif" font-size="24" font-weight="900">Cold fries</text>
      <text x="88" y="70" fill="#68726f" font-family="Inter, Arial, sans-serif" font-size="18" font-weight="700">Unforgivable</text>
    </g>
  </g>
  <g transform="translate(90 414)">
    <rect x="0" y="0" width="432" height="92" rx="22" fill="#ffffff" stroke="#1f2524" stroke-width="6"/>
    <rect x="22" y="24" width="44" height="44" rx="10" fill="#4f9a69" stroke="#1f2524" stroke-width="5"/>
    <rect x="78" y="24" width="44" height="44" rx="10" fill="#f2bf43" stroke="#1f2524" stroke-width="5"/>
    <rect x="134" y="24" width="44" height="44" rx="10" fill="#ec6a58" stroke="#1f2524" stroke-width="5"/>
    <rect x="190" y="24" width="44" height="44" rx="10" fill="#2f3534" stroke="#1f2524" stroke-width="5"/>
    <rect x="246" y="24" width="44" height="44" rx="10" fill="#4f9a69" stroke="#1f2524" stroke-width="5"/>
    <text x="314" y="58" fill="#1f2524" font-family="Inter, Arial, sans-serif" font-size="26" font-weight="900">Crowd match</text>
  </g>
</svg>
