<svg xmlns="http://www.w3.org/2000/svg" width="1200" height="630" viewBox="0 0 1200 630" role="img" aria-labelledby="title desc">
  <title id="title">Local Five</title>
  <desc id="desc">A preview card for Local Five, a city guide for creator-ranked top-five lists.</desc>
  <rect width="1200" height="630" fill="#f4f7f2"/>
  <path d="M0 470c104-42 210-56 318-42 154 20 246 102 392 80 134-20 233-98 490-74v196H0Z" fill="#dfeadd"/>
  <path d="M0 0h1200v112H0Z" fill="#202523"/>
  <g transform="translate(80 58)">
    <rect width="108" height="108" rx="18" fill="#e1a93b" stroke="#202523" stroke-width="8"/>
    <text x="24" y="70" fill="#202523" font-family="Inter, Arial, sans-serif" font-size="43" font-weight="900" letter-spacing="0">L5</text>
  </g>
  <text x="80" y="252" fill="#202523" font-family="Inter, Arial, sans-serif" font-size="92" font-weight="900" letter-spacing="0">Local Five</text>
  <text x="84" y="322" fill="#52605a" font-family="Inter, Arial, sans-serif" font-size="35" font-weight="800" letter-spacing="0">Creator-ranked top-five lists for your city.</text>
  <g transform="translate(78 392)">
    <rect x="0" y="0" width="500" height="96" rx="18" fill="#ffffff" stroke="#202523" stroke-width="6"/>
    <text x="30" y="40" fill="#24705c" font-family="Inter, Arial, sans-serif" font-size="23" font-weight="900" letter-spacing="0">Seattle Pizza Consensus</text>
    <text x="30" y="72" fill="#202523" font-family="Inter, Arial, sans-serif" font-size="28" font-weight="900" letter-spacing="0">1. Moto  2. Delancey  3. Big Mario's</text>
  </g>
  <g transform="translate(730 150)">
    <rect x="0" y="0" width="330" height="360" rx="22" fill="#ffffff" stroke="#202523" stroke-width="7"/>
    <rect x="24" y="24" width="282" height="118" rx="16" fill="#d95f43" stroke="#202523" stroke-width="6"/>
    <path d="M55 90c52-34 104-44 156-30 38 10 63 3 82-18" fill="none" stroke="#ffffff" stroke-width="14" stroke-linecap="round"/>
    <text x="34" y="188" fill="#202523" font-family="Inter, Arial, sans-serif" font-size="28" font-weight="900" letter-spacing="0">Top 5 taco plans</text>
    <g font-family="Inter, Arial, sans-serif" font-weight="850" font-size="21" fill="#202523">
      <text x="36" y="232">1. Carmelo's</text>
      <text x="36" y="270">2. Tacos Chukis</text>
      <text x="36" y="308">3. Maiz</text>
    </g>
  </g>
</svg>
