<svg xmlns="http://www.w3.org/2000/svg" width="1200" height="630" viewBox="0 0 1200 630" role="img" aria-labelledby="title desc">
  <title id="title">Local Five</title>
  <desc id="desc">A preview card for Local Five, a Top 5 ranking game for local food debates.</desc>
  <rect width="1200" height="630" fill="#f7f2e9"/>
  <path d="M0 468c120-48 230-62 330-42 150 30 245 104 404 74 132-25 238-92 466-70v200H0Z" fill="#eadfcb"/>
  <path d="M0 0h1200v112H0Z" fill="#201f1c"/>
  <g transform="translate(78 58)">
    <rect width="108" height="108" rx="20" fill="#e0aa42" stroke="#201f1c" stroke-width="8"/>
    <text x="23" y="70" fill="#201f1c" font-family="Inter, Arial, sans-serif" font-size="43" font-weight="900" letter-spacing="0">L5</text>
  </g>
  <text x="78" y="250" fill="#201f1c" font-family="Inter, Arial, sans-serif" font-size="92" font-weight="900" letter-spacing="0">Local Five</text>
  <text x="82" y="322" fill="#5d574f" font-family="Inter, Arial, sans-serif" font-size="35" font-weight="800" letter-spacing="0">Make your Top 5. See if the city agrees.</text>
  <g transform="translate(78 396)">
    <rect x="0" y="0" width="520" height="96" rx="18" fill="#fffdf8" stroke="#201f1c" stroke-width="6"/>
    <text x="30" y="40" fill="#246b55" font-family="Inter, Arial, sans-serif" font-size="23" font-weight="900">Seattle Pizza Challenge</text>
    <text x="30" y="72" fill="#201f1c" font-family="Inter, Arial, sans-serif" font-size="28" font-weight="900">Rank your Top 5 spots</text>
  </g>
  <g transform="translate(730 142)">
    <rect x="0" y="0" width="338" height="384" rx="24" fill="#fffdf8" stroke="#201f1c" stroke-width="7"/>
    <rect x="26" y="26" width="286" height="72" rx="16" fill="#d95f43" stroke="#201f1c" stroke-width="6"/>
    <text x="50" y="73" fill="#ffffff" font-family="Inter, Arial, sans-serif" font-size="30" font-weight="900">My Local Five</text>
    <g font-family="Inter, Arial, sans-serif" font-weight="900" font-size="23" fill="#201f1c">
      <circle cx="52" cy="142" r="18" fill="#e0aa42" stroke="#201f1c" stroke-width="4"/>
      <text x="45" y="151">1</text>
      <text x="86" y="151">Moto Pizza</text>
      <circle cx="52" cy="190" r="18" fill="#e0aa42" stroke="#201f1c" stroke-width="4"/>
      <text x="45" y="199">2</text>
      <text x="86" y="199">Delancey</text>
      <circle cx="52" cy="238" r="18" fill="#e0aa42" stroke="#201f1c" stroke-width="4"/>
      <text x="45" y="247">3</text>
      <text x="86" y="247">Big Mario's</text>
      <circle cx="52" cy="286" r="18" fill="#e0aa42" stroke="#201f1c" stroke-width="4"/>
      <text x="45" y="295">4</text>
      <text x="86" y="295">Dino's</text>
      <circle cx="52" cy="334" r="18" fill="#e0aa42" stroke="#201f1c" stroke-width="4"/>
      <text x="45" y="343">5</text>
      <text x="86" y="343">Stevie's</text>
    </g>
  </g>
</svg>
